<?xml version="1.0" encoding="UTF-8"?>
<svg width="96" height="96" viewBox="0 0 512 512" fill="none" xmlns="http://www.w3.org/2000/svg">
  <!-- Background -->
  <rect width="512" height="512" rx="120" fill="url(#backgroundGradient)"/>
  
  <!-- Food Bowl -->
  <circle cx="256" cy="200" r="120" fill="#FFE4B5" stroke="#FF6B35" stroke-width="8"/>
  <ellipse cx="256" cy="200" rx="100" ry="30" fill="#FFD700"/>
  
  <!-- Utensils -->
  <g transform="translate(180, 320)">
    <!-- Fork -->
    <rect x="0" y="0" width="8" height="80" fill="#C0C0C0"/>
    <rect x="-4" y="-10" width="4" height="20" fill="#C0C0C0"/>
    <rect x="4" y="-10" width="4" height="20" fill="#C0C0C0"/>
    <rect x="12" y="-10" width="4" height="20" fill="#C0C0C0"/>
  </g>
  
  <g transform="translate(320, 320)">
    <!-- Spoon -->
    <rect x="0" y="0" width="8" height="80" fill="#C0C0C0"/>
    <ellipse cx="4" cy="-10" rx="12" ry="18" fill="#C0C0C0"/>
  </g>
  
  <!-- AI Symbol -->
  <g transform="translate(400, 100)">
    <circle cx="0" cy="0" r="30" fill="#4A90E2" opacity="0.9"/>
    <circle cx="-8" cy="-8" r="4" fill="white"/>
    <circle cx="8" cy="-8" r="4" fill="white"/>
    <path d="M -15 8 Q 0 20 15 8" stroke="white" stroke-width="3" fill="none"/>
  </g>
  
  <!-- Gradients -->
  <defs>
    <linearGradient id="backgroundGradient" x1="0%" y1="0%" x2="100%" y2="100%">
      <stop offset="0%" style="stop-color:#FF6B35;stop-opacity:1" />
      <stop offset="50%" style="stop-color:#F7931E;stop-opacity:1" />
      <stop offset="100%" style="stop-color:#FFD700;stop-opacity:1" />
    </linearGradient>
  </defs>
</svg>
